<mxfile host="app.diagrams.net" modified="2022-07-26T06:34:00.777Z" agent="5.0 (Windows NT 10.0; Win64; x64) AppleWebKit/537.36 (KHTML, like Gecko) Chrome/103.0.0.0 Safari/537.36" etag="HRQlg8O5onnZTPT3xXjG" version="20.2.0" type="github">
  <diagram id="MmWCuzawCpAn4VSDzp1v" name="第 1 页">
    <mxGraphModel dx="1038" dy="539" grid="1" gridSize="10" guides="1" tooltips="1" connect="1" arrows="1" fold="1" page="1" pageScale="1" pageWidth="583" pageHeight="827" math="0" shadow="0">
      <root>
        <mxCell id="0" />
        <mxCell id="1" parent="0" />
        <mxCell id="PNbjyHo3dAUq9fAaba8z-1" value="知识竞赛Api" style="rounded=1;whiteSpace=wrap;html=1;fillColor=#dae8fc;strokeColor=#6c8ebf;strokeWidth=2;fontSize=15;" parent="1" vertex="1">
          <mxGeometry x="30" y="49" width="120" height="60" as="geometry" />
        </mxCell>
        <mxCell id="PNbjyHo3dAUq9fAaba8z-3" value="信息素养Api" style="rounded=1;whiteSpace=wrap;html=1;fillColor=#dae8fc;strokeColor=#6c8ebf;strokeWidth=2;fontSize=15;" parent="1" vertex="1">
          <mxGeometry x="30" y="240" width="120" height="60" as="geometry" />
        </mxCell>
        <mxCell id="PNbjyHo3dAUq9fAaba8z-4" value="信息素养前端" style="rounded=1;whiteSpace=wrap;html=1;fillColor=#dae8fc;strokeColor=#6c8ebf;strokeWidth=2;fontSize=15;" parent="1" vertex="1">
          <mxGeometry x="290" y="240" width="120" height="60" as="geometry" />
        </mxCell>
        <mxCell id="PNbjyHo3dAUq9fAaba8z-5" value="SSO Api" style="rounded=1;whiteSpace=wrap;html=1;fillColor=#dae8fc;strokeColor=#6c8ebf;strokeWidth=2;fontSize=15;" parent="1" vertex="1">
          <mxGeometry x="870" y="49" width="120" height="60" as="geometry" />
        </mxCell>
        <mxCell id="PNbjyHo3dAUq9fAaba8z-6" value="SSO前端登录页" style="rounded=1;whiteSpace=wrap;html=1;fillColor=#dae8fc;strokeColor=#6c8ebf;strokeWidth=2;fontSize=15;" parent="1" vertex="1">
          <mxGeometry x="580" y="49" width="120" height="60" as="geometry" />
        </mxCell>
        <mxCell id="PNbjyHo3dAUq9fAaba8z-7" value="知识竞赛前端" style="rounded=1;whiteSpace=wrap;html=1;fillColor=#dae8fc;strokeColor=#6c8ebf;strokeWidth=2;fontSize=15;" parent="1" vertex="1">
          <mxGeometry x="280" y="49" width="120" height="60" as="geometry" />
        </mxCell>
        <mxCell id="PNbjyHo3dAUq9fAaba8z-8" value="SSO前端退出页" style="rounded=1;whiteSpace=wrap;html=1;fillColor=#dae8fc;strokeColor=#6c8ebf;strokeWidth=2;fontSize=15;" parent="1" vertex="1">
          <mxGeometry x="730" y="470" width="120" height="60" as="geometry" />
        </mxCell>
        <mxCell id="PNbjyHo3dAUq9fAaba8z-9" value="某个客户端退出" style="rounded=1;whiteSpace=wrap;html=1;fillColor=#dae8fc;strokeColor=#6c8ebf;strokeWidth=2;fontSize=15;" parent="1" vertex="1">
          <mxGeometry x="490" y="470" width="120" height="60" as="geometry" />
        </mxCell>
        <mxCell id="PNbjyHo3dAUq9fAaba8z-10" value="Api" style="rounded=1;whiteSpace=wrap;html=1;fillColor=#dae8fc;strokeColor=#6c8ebf;strokeWidth=2;fontSize=15;" parent="1" vertex="1">
          <mxGeometry x="290" y="470" width="120" height="60" as="geometry" />
        </mxCell>
        <mxCell id="PNbjyHo3dAUq9fAaba8z-11" value="退出状态&lt;br&gt;其他客户端" style="rounded=1;whiteSpace=wrap;html=1;fillColor=#dae8fc;strokeColor=#6c8ebf;strokeWidth=2;fontSize=15;" parent="1" vertex="1">
          <mxGeometry x="30" y="470" width="120" height="60" as="geometry" />
        </mxCell>
        <mxCell id="PNbjyHo3dAUq9fAaba8z-12" value="" style="endArrow=classic;html=1;rounded=0;fontSize=15;strokeWidth=3;fillColor=#dae8fc;strokeColor=#6c8ebf;entryX=0;entryY=0.25;entryDx=0;entryDy=0;exitX=1;exitY=0.25;exitDx=0;exitDy=0;" parent="1" edge="1">
          <mxGeometry width="50" height="50" relative="1" as="geometry">
            <mxPoint x="150" y="92" as="sourcePoint" />
            <mxPoint x="280" y="92" as="targetPoint" />
          </mxGeometry>
        </mxCell>
        <mxCell id="PNbjyHo3dAUq9fAaba8z-13" value="" style="endArrow=classic;html=1;rounded=0;fontSize=15;strokeWidth=3;fillColor=#dae8fc;strokeColor=#6c8ebf;entryX=1;entryY=0.75;entryDx=0;entryDy=0;exitX=0;exitY=0.75;exitDx=0;exitDy=0;" parent="1" edge="1" target="PNbjyHo3dAUq9fAaba8z-9" source="PNbjyHo3dAUq9fAaba8z-8">
          <mxGeometry width="50" height="50" relative="1" as="geometry">
            <mxPoint x="660" y="510" as="sourcePoint" />
            <mxPoint x="790" y="510" as="targetPoint" />
          </mxGeometry>
        </mxCell>
        <mxCell id="PNbjyHo3dAUq9fAaba8z-14" value="" style="endArrow=classic;html=1;rounded=0;fontSize=15;strokeWidth=3;fillColor=#dae8fc;strokeColor=#6c8ebf;entryX=0;entryY=0.25;entryDx=0;entryDy=0;exitX=1;exitY=0.25;exitDx=0;exitDy=0;" parent="1" edge="1" target="PNbjyHo3dAUq9fAaba8z-8" source="PNbjyHo3dAUq9fAaba8z-9">
          <mxGeometry width="50" height="50" relative="1" as="geometry">
            <mxPoint x="610" y="490" as="sourcePoint" />
            <mxPoint x="740" y="490" as="targetPoint" />
          </mxGeometry>
        </mxCell>
        <mxCell id="PNbjyHo3dAUq9fAaba8z-15" value="" style="endArrow=classic;html=1;rounded=0;fontSize=15;strokeWidth=3;fillColor=#dae8fc;strokeColor=#6c8ebf;entryX=0.25;entryY=1;entryDx=0;entryDy=0;exitX=1;exitY=0.25;exitDx=0;exitDy=0;" parent="1" edge="1" target="PNbjyHo3dAUq9fAaba8z-6">
          <mxGeometry width="50" height="50" relative="1" as="geometry">
            <mxPoint x="410" y="260" as="sourcePoint" />
            <mxPoint x="540" y="260" as="targetPoint" />
            <Array as="points">
              <mxPoint x="610" y="260" />
            </Array>
          </mxGeometry>
        </mxCell>
        <mxCell id="PNbjyHo3dAUq9fAaba8z-16" value="" style="endArrow=classic;html=1;rounded=0;fontSize=15;strokeWidth=3;fillColor=#dae8fc;strokeColor=#6c8ebf;entryX=1;entryY=0.75;entryDx=0;entryDy=0;exitX=0.75;exitY=1;exitDx=0;exitDy=0;" parent="1" edge="1" target="PNbjyHo3dAUq9fAaba8z-4" source="PNbjyHo3dAUq9fAaba8z-6">
          <mxGeometry width="50" height="50" relative="1" as="geometry">
            <mxPoint x="500" y="370" as="sourcePoint" />
            <mxPoint x="630" y="370" as="targetPoint" />
            <Array as="points">
              <mxPoint x="670" y="285" />
            </Array>
          </mxGeometry>
        </mxCell>
        <mxCell id="PNbjyHo3dAUq9fAaba8z-17" value="" style="endArrow=classic;html=1;rounded=0;fontSize=15;strokeWidth=3;fillColor=#dae8fc;strokeColor=#6c8ebf;entryX=0;entryY=0.75;entryDx=0;entryDy=0;exitX=1;exitY=0.75;exitDx=0;exitDy=0;" parent="1" edge="1" target="PNbjyHo3dAUq9fAaba8z-4" source="PNbjyHo3dAUq9fAaba8z-3">
          <mxGeometry width="50" height="50" relative="1" as="geometry">
            <mxPoint x="150" y="280" as="sourcePoint" />
            <mxPoint x="280" y="280" as="targetPoint" />
          </mxGeometry>
        </mxCell>
        <mxCell id="PNbjyHo3dAUq9fAaba8z-18" value="" style="endArrow=classic;html=1;rounded=0;fontSize=15;strokeWidth=3;fillColor=#dae8fc;strokeColor=#6c8ebf;entryX=1;entryY=0.25;entryDx=0;entryDy=0;exitX=0;exitY=0.25;exitDx=0;exitDy=0;" parent="1" edge="1" target="PNbjyHo3dAUq9fAaba8z-3" source="PNbjyHo3dAUq9fAaba8z-4">
          <mxGeometry width="50" height="50" relative="1" as="geometry">
            <mxPoint x="165" y="210" as="sourcePoint" />
            <mxPoint x="295" y="210" as="targetPoint" />
          </mxGeometry>
        </mxCell>
        <mxCell id="PNbjyHo3dAUq9fAaba8z-19" value="" style="endArrow=classic;html=1;rounded=0;fontSize=15;strokeWidth=3;fillColor=#dae8fc;strokeColor=#6c8ebf;entryX=0;entryY=0.25;entryDx=0;entryDy=0;exitX=1;exitY=0.25;exitDx=0;exitDy=0;" parent="1" edge="1" target="PNbjyHo3dAUq9fAaba8z-5" source="PNbjyHo3dAUq9fAaba8z-6">
          <mxGeometry width="50" height="50" relative="1" as="geometry">
            <mxPoint x="720" y="59" as="sourcePoint" />
            <mxPoint x="850" y="59" as="targetPoint" />
          </mxGeometry>
        </mxCell>
        <mxCell id="PNbjyHo3dAUq9fAaba8z-20" value="" style="endArrow=classic;html=1;rounded=0;fontSize=15;strokeWidth=3;fillColor=#dae8fc;strokeColor=#6c8ebf;entryX=1;entryY=0.75;entryDx=0;entryDy=0;exitX=0;exitY=0.75;exitDx=0;exitDy=0;" parent="1" edge="1" target="PNbjyHo3dAUq9fAaba8z-6" source="PNbjyHo3dAUq9fAaba8z-5">
          <mxGeometry width="50" height="50" relative="1" as="geometry">
            <mxPoint x="610" y="130" as="sourcePoint" />
            <mxPoint x="740" y="130" as="targetPoint" />
          </mxGeometry>
        </mxCell>
        <mxCell id="PNbjyHo3dAUq9fAaba8z-21" value="" style="endArrow=classic;html=1;rounded=0;fontSize=15;strokeWidth=3;fillColor=#dae8fc;strokeColor=#6c8ebf;exitX=0;exitY=0.25;exitDx=0;exitDy=0;entryX=1;entryY=0.25;entryDx=0;entryDy=0;" parent="1" edge="1" target="PNbjyHo3dAUq9fAaba8z-1" source="PNbjyHo3dAUq9fAaba8z-7">
          <mxGeometry width="50" height="50" relative="1" as="geometry">
            <mxPoint x="150" y="59" as="sourcePoint" />
            <mxPoint x="180" y="80" as="targetPoint" />
          </mxGeometry>
        </mxCell>
        <mxCell id="PNbjyHo3dAUq9fAaba8z-22" value="" style="endArrow=classic;html=1;rounded=0;fontSize=15;strokeWidth=3;fillColor=#dae8fc;strokeColor=#6c8ebf;entryX=0;entryY=0.25;entryDx=0;entryDy=0;exitX=1;exitY=0.25;exitDx=0;exitDy=0;" parent="1" edge="1" target="PNbjyHo3dAUq9fAaba8z-6" source="PNbjyHo3dAUq9fAaba8z-7">
          <mxGeometry width="50" height="50" relative="1" as="geometry">
            <mxPoint x="440" y="59" as="sourcePoint" />
            <mxPoint x="570" y="59" as="targetPoint" />
          </mxGeometry>
        </mxCell>
        <mxCell id="PNbjyHo3dAUq9fAaba8z-23" value="" style="endArrow=classic;html=1;rounded=0;fontSize=15;strokeWidth=3;fillColor=#dae8fc;strokeColor=#6c8ebf;entryX=1;entryY=0.75;entryDx=0;entryDy=0;exitX=0;exitY=0.75;exitDx=0;exitDy=0;" parent="1" edge="1" target="PNbjyHo3dAUq9fAaba8z-7" source="PNbjyHo3dAUq9fAaba8z-6">
          <mxGeometry width="50" height="50" relative="1" as="geometry">
            <mxPoint x="440" y="99" as="sourcePoint" />
            <mxPoint x="570" y="99" as="targetPoint" />
          </mxGeometry>
        </mxCell>
        <mxCell id="PNbjyHo3dAUq9fAaba8z-26" value="" style="endArrow=classic;html=1;rounded=0;fontSize=15;strokeWidth=3;fillColor=#dae8fc;strokeColor=#6c8ebf;entryX=1;entryY=0.75;entryDx=0;entryDy=0;exitX=0.75;exitY=1;exitDx=0;exitDy=0;" parent="1" edge="1" target="PNbjyHo3dAUq9fAaba8z-8" source="PNbjyHo3dAUq9fAaba8z-5">
          <mxGeometry width="50" height="50" relative="1" as="geometry">
            <mxPoint x="890" y="520" as="sourcePoint" />
            <mxPoint x="1020" y="520" as="targetPoint" />
            <Array as="points">
              <mxPoint x="960" y="515" />
            </Array>
          </mxGeometry>
        </mxCell>
        <mxCell id="PNbjyHo3dAUq9fAaba8z-27" value="" style="endArrow=classic;html=1;rounded=0;fontSize=15;strokeWidth=3;fillColor=#dae8fc;strokeColor=#6c8ebf;entryX=0.25;entryY=1;entryDx=0;entryDy=0;exitX=1;exitY=0.25;exitDx=0;exitDy=0;" parent="1" edge="1" target="PNbjyHo3dAUq9fAaba8z-5" source="PNbjyHo3dAUq9fAaba8z-8">
          <mxGeometry width="50" height="50" relative="1" as="geometry">
            <mxPoint x="910" y="490" as="sourcePoint" />
            <mxPoint x="1040" y="490" as="targetPoint" />
            <Array as="points">
              <mxPoint x="900" y="485" />
            </Array>
          </mxGeometry>
        </mxCell>
        <mxCell id="PNbjyHo3dAUq9fAaba8z-28" value="" style="endArrow=classic;html=1;rounded=0;fontSize=15;strokeWidth=3;fillColor=#dae8fc;strokeColor=#6c8ebf;exitX=0;exitY=0.75;exitDx=0;exitDy=0;entryX=1;entryY=0.75;entryDx=0;entryDy=0;" parent="1" edge="1" target="PNbjyHo3dAUq9fAaba8z-11" source="PNbjyHo3dAUq9fAaba8z-10">
          <mxGeometry width="50" height="50" relative="1" as="geometry">
            <mxPoint x="30" y="510" as="sourcePoint" />
            <mxPoint x="150" y="510" as="targetPoint" />
          </mxGeometry>
        </mxCell>
        <mxCell id="PNbjyHo3dAUq9fAaba8z-29" value="" style="endArrow=classic;html=1;rounded=0;fontSize=15;strokeWidth=3;fillColor=#dae8fc;strokeColor=#6c8ebf;entryX=0;entryY=0.25;entryDx=0;entryDy=0;exitX=1;exitY=0.25;exitDx=0;exitDy=0;" parent="1" edge="1" target="PNbjyHo3dAUq9fAaba8z-10" source="PNbjyHo3dAUq9fAaba8z-11">
          <mxGeometry width="50" height="50" relative="1" as="geometry">
            <mxPoint x="160" y="490" as="sourcePoint" />
            <mxPoint x="290" y="490" as="targetPoint" />
          </mxGeometry>
        </mxCell>
        <mxCell id="u93udzJpezdw6cveQIbG-1" value="&lt;span style=&quot;color: rgb(0, 0, 0); font-family: 微软雅黑; font-size: 14px; font-style: normal; font-variant-ligatures: normal; font-variant-caps: normal; font-weight: 400; letter-spacing: normal; orphans: 2; text-align: center; text-indent: 0px; text-transform: none; widows: 2; word-spacing: 0px; -webkit-text-stroke-width: 0px; background-color: rgba(255, 255, 255, 0.01); text-decoration-thickness: initial; text-decoration-style: initial; text-decoration-color: initial; float: none; display: inline !important;&quot;&gt;cookie中存在token&lt;/span&gt;" style="text;whiteSpace=wrap;html=1;" vertex="1" parent="1">
          <mxGeometry x="150" y="9" width="160" height="40" as="geometry" />
        </mxCell>
        <mxCell id="u93udzJpezdw6cveQIbG-2" value="&lt;span style=&quot;color: rgb(0, 0, 0); font-family: 微软雅黑; font-size: 14px; font-style: normal; font-variant-ligatures: normal; font-variant-caps: normal; font-weight: 400; letter-spacing: normal; orphans: 2; text-align: center; text-indent: 0px; text-transform: none; widows: 2; word-spacing: 0px; -webkit-text-stroke-width: 0px; background-color: rgba(255, 255, 255, 0.01); text-decoration-thickness: initial; text-decoration-style: initial; text-decoration-color: initial; float: none; display: inline !important;&quot;&gt;返回数据，redis中token已过期或退出登录不存在，返回401，前端跳转到SSO登录页&lt;/span&gt;" style="text;whiteSpace=wrap;html=1;" vertex="1" parent="1">
          <mxGeometry x="150" y="109" width="130" height="60" as="geometry" />
        </mxCell>
        <mxCell id="u93udzJpezdw6cveQIbG-3" value="&lt;span style=&quot;color: rgb(0, 0, 0); font-family: 微软雅黑; font-size: 14px; font-style: normal; font-variant-ligatures: normal; font-variant-caps: normal; font-weight: 400; letter-spacing: normal; orphans: 2; text-align: center; text-indent: 0px; text-transform: none; widows: 2; word-spacing: 0px; -webkit-text-stroke-width: 0px; background-color: rgba(255, 255, 255, 0.01); text-decoration-thickness: initial; text-decoration-style: initial; text-decoration-color: initial; float: none; display: inline !important;&quot;&gt;1、cookie中没有token&lt;/span&gt;" style="text;whiteSpace=wrap;html=1;" vertex="1" parent="1">
          <mxGeometry x="403" y="20" width="180" height="40" as="geometry" />
        </mxCell>
        <mxCell id="u93udzJpezdw6cveQIbG-4" value="&lt;span style=&quot;color: rgb(0, 0, 0); font-family: 微软雅黑; font-size: 14px; font-style: normal; font-variant-ligatures: normal; font-variant-caps: normal; font-weight: 400; letter-spacing: normal; orphans: 2; text-align: center; text-indent: 0px; text-transform: none; widows: 2; word-spacing: 0px; -webkit-text-stroke-width: 0px; background-color: rgba(255, 255, 255, 0.01); text-decoration-thickness: initial; text-decoration-style: initial; text-decoration-color: initial; float: none; display: inline !important;&quot;&gt;4、携带token返回，token保存到cookie&lt;/span&gt;" style="text;whiteSpace=wrap;html=1;" vertex="1" parent="1">
          <mxGeometry x="430" y="100" width="110" height="60" as="geometry" />
        </mxCell>
        <mxCell id="u93udzJpezdw6cveQIbG-5" value="&lt;span style=&quot;color: rgb(0, 0, 0); font-family: 微软雅黑; font-size: 14px; font-style: normal; font-variant-ligatures: normal; font-variant-caps: normal; font-weight: 400; letter-spacing: normal; orphans: 2; text-align: center; text-indent: 0px; text-transform: none; widows: 2; word-spacing: 0px; -webkit-text-stroke-width: 0px; background-color: rgba(255, 255, 255, 0.01); text-decoration-thickness: initial; text-decoration-style: initial; text-decoration-color: initial; float: none; display: inline !important;&quot;&gt;2、验证回调地址，登录成功，生成token，保存到redis&lt;/span&gt;" style="text;whiteSpace=wrap;html=1;" vertex="1" parent="1">
          <mxGeometry x="690" width="190" height="35" as="geometry" />
        </mxCell>
        <mxCell id="u93udzJpezdw6cveQIbG-6" value="&lt;span style=&quot;color: rgb(0, 0, 0); font-family: 微软雅黑; font-size: 14px; font-style: normal; font-variant-ligatures: normal; font-variant-caps: normal; font-weight: 400; letter-spacing: normal; orphans: 2; text-align: center; text-indent: 0px; text-transform: none; widows: 2; word-spacing: 0px; -webkit-text-stroke-width: 0px; background-color: rgba(255, 255, 255, 0.01); text-decoration-thickness: initial; text-decoration-style: initial; text-decoration-color: initial; float: none; display: inline !important;&quot;&gt;3、SSO前端token保存到cookie&lt;/span&gt;" style="text;whiteSpace=wrap;html=1;" vertex="1" parent="1">
          <mxGeometry x="700" y="110" width="180" height="40" as="geometry" />
        </mxCell>
        <mxCell id="u93udzJpezdw6cveQIbG-7" value="&lt;span style=&quot;color: rgb(0, 0, 0); font-family: 微软雅黑; font-size: 14px; font-style: normal; font-variant-ligatures: normal; font-variant-caps: normal; font-weight: 400; letter-spacing: normal; orphans: 2; text-align: center; text-indent: 0px; text-transform: none; widows: 2; word-spacing: 0px; -webkit-text-stroke-width: 0px; background-color: rgba(255, 255, 255, 0.01); text-decoration-thickness: initial; text-decoration-style: initial; text-decoration-color: initial; float: none; display: inline !important;&quot;&gt;cookie中存在token&lt;/span&gt;" style="text;whiteSpace=wrap;html=1;" vertex="1" parent="1">
          <mxGeometry x="160" y="210" width="160" height="40" as="geometry" />
        </mxCell>
        <mxCell id="u93udzJpezdw6cveQIbG-8" value="&lt;span style=&quot;color: rgb(0, 0, 0); font-family: 微软雅黑; font-size: 14px; font-style: normal; font-variant-ligatures: normal; font-variant-caps: normal; font-weight: 400; letter-spacing: normal; orphans: 2; text-align: center; text-indent: 0px; text-transform: none; widows: 2; word-spacing: 0px; -webkit-text-stroke-width: 0px; background-color: rgba(255, 255, 255, 0.01); text-decoration-thickness: initial; text-decoration-style: initial; text-decoration-color: initial; float: none; display: inline !important;&quot;&gt;返回数据，redis中token已过期或退出登录不存在，返回401，前端跳转到SSO登录页&lt;/span&gt;" style="text;whiteSpace=wrap;html=1;" vertex="1" parent="1">
          <mxGeometry x="150" y="300" width="145" height="80" as="geometry" />
        </mxCell>
        <mxCell id="u93udzJpezdw6cveQIbG-9" value="&lt;span style=&quot;color: rgb(0, 0, 0); font-family: 微软雅黑; font-size: 14px; font-style: normal; font-variant-ligatures: normal; font-variant-caps: normal; font-weight: 400; letter-spacing: normal; orphans: 2; text-align: center; text-indent: 0px; text-transform: none; widows: 2; word-spacing: 0px; -webkit-text-stroke-width: 0px; background-color: rgba(255, 255, 255, 0.01); text-decoration-thickness: initial; text-decoration-style: initial; text-decoration-color: initial; float: none; display: inline !important;&quot;&gt;1、cookie中没有token&lt;/span&gt;" style="text;whiteSpace=wrap;html=1;" vertex="1" parent="1">
          <mxGeometry x="430" y="220" width="180" height="40" as="geometry" />
        </mxCell>
        <mxCell id="u93udzJpezdw6cveQIbG-10" value="&lt;span style=&quot;color: rgb(0, 0, 0); font-family: 微软雅黑; font-size: 14px; font-style: normal; font-variant-ligatures: normal; font-variant-caps: normal; font-weight: 400; letter-spacing: normal; orphans: 2; text-align: center; text-indent: 0px; text-transform: none; widows: 2; word-spacing: 0px; -webkit-text-stroke-width: 0px; background-color: rgba(255, 255, 255, 0.01); text-decoration-thickness: initial; text-decoration-style: initial; text-decoration-color: initial; float: none; display: inline !important;&quot;&gt;2、验证回调地址及redis中token是否与sso中token一致，返回token，重置sso中token&lt;/span&gt;" style="text;whiteSpace=wrap;html=1;" vertex="1" parent="1">
          <mxGeometry x="420" y="300" width="230" height="70" as="geometry" />
        </mxCell>
        <mxCell id="u93udzJpezdw6cveQIbG-11" value="&lt;span style=&quot;color: rgb(0, 0, 0); font-family: 微软雅黑; font-size: 14px; font-style: normal; font-variant-ligatures: normal; font-variant-caps: normal; font-weight: 400; letter-spacing: normal; orphans: 2; text-align: center; text-indent: 0px; text-transform: none; widows: 2; word-spacing: 0px; -webkit-text-stroke-width: 0px; background-color: rgba(255, 255, 255, 0.01); text-decoration-thickness: initial; text-decoration-style: initial; text-decoration-color: initial; float: none; display: inline !important;&quot;&gt;2、redis中删除token&lt;/span&gt;" style="text;whiteSpace=wrap;html=1;" vertex="1" parent="1">
          <mxGeometry x="750" y="280" width="140" height="50" as="geometry" />
        </mxCell>
        <mxCell id="u93udzJpezdw6cveQIbG-12" value="&lt;span style=&quot;color: rgb(0, 0, 0); font-family: 微软雅黑; font-size: 14px; font-style: normal; font-variant-ligatures: normal; font-variant-caps: normal; font-weight: 400; letter-spacing: normal; orphans: 2; text-align: center; text-indent: 0px; text-transform: none; widows: 2; word-spacing: 0px; -webkit-text-stroke-width: 0px; background-color: rgba(255, 255, 255, 0.01); text-decoration-thickness: initial; text-decoration-style: initial; text-decoration-color: initial; float: none; display: inline !important;&quot;&gt;3、成功，跳转到回调页面或SSO登录页&lt;/span&gt;" style="text;whiteSpace=wrap;html=1;" vertex="1" parent="1">
          <mxGeometry x="970" y="280" width="150" height="60" as="geometry" />
        </mxCell>
        <mxCell id="u93udzJpezdw6cveQIbG-13" value="&lt;span style=&quot;color: rgb(0, 0, 0); font-family: 微软雅黑; font-size: 14px; font-style: normal; font-variant-ligatures: normal; font-variant-caps: normal; font-weight: 400; letter-spacing: normal; orphans: 2; text-align: center; text-indent: 0px; text-transform: none; widows: 2; word-spacing: 0px; -webkit-text-stroke-width: 0px; background-color: rgba(255, 255, 255, 0.01); text-decoration-thickness: initial; text-decoration-style: initial; text-decoration-color: initial; float: none; display: inline !important;&quot;&gt;1、客户端前端删除token，SSO端删除token&lt;/span&gt;" style="text;whiteSpace=wrap;html=1;" vertex="1" parent="1">
          <mxGeometry x="600" y="414" width="150" height="40" as="geometry" />
        </mxCell>
        <mxCell id="u93udzJpezdw6cveQIbG-14" value="&lt;span style=&quot;color: rgb(0, 0, 0); font-family: 微软雅黑; font-size: 14px; font-style: normal; font-variant-ligatures: normal; font-variant-caps: normal; font-weight: 400; letter-spacing: normal; orphans: 2; text-align: center; text-indent: 0px; text-transform: none; widows: 2; word-spacing: 0px; -webkit-text-stroke-width: 0px; background-color: rgba(255, 255, 255, 0.01); text-decoration-thickness: initial; text-decoration-style: initial; text-decoration-color: initial; float: none; display: inline !important;&quot;&gt;1、请求数据，携带token&lt;/span&gt;" style="text;whiteSpace=wrap;html=1;" vertex="1" parent="1">
          <mxGeometry x="145" y="440" width="190" height="40" as="geometry" />
        </mxCell>
        <mxCell id="u93udzJpezdw6cveQIbG-15" value="&lt;span style=&quot;color: rgb(0, 0, 0); font-family: 微软雅黑; font-size: 14px; font-style: normal; font-variant-ligatures: normal; font-variant-caps: normal; font-weight: 400; letter-spacing: normal; orphans: 2; text-align: center; text-indent: 0px; text-transform: none; widows: 2; word-spacing: 0px; -webkit-text-stroke-width: 0px; background-color: rgba(255, 255, 255, 0.01); text-decoration-thickness: initial; text-decoration-style: initial; text-decoration-color: initial; float: none; display: inline !important;&quot;&gt;2、redis中token已删除，返回401，前端删除token并且跳转到SSO登录页&lt;/span&gt;" style="text;whiteSpace=wrap;html=1;" vertex="1" parent="1">
          <mxGeometry x="145" y="540" width="145" height="80" as="geometry" />
        </mxCell>
        <UserObject label="6844903845424971783#heading-5" link="https://juejin.cn/post/6844903845424971783#heading-5" id="u93udzJpezdw6cveQIbG-16">
          <mxCell style="fontColor=#0000EE;fontStyle=4;rounded=1;overflow=hidden;spacing=10;" vertex="1" parent="1">
            <mxGeometry x="20" y="670" width="230" height="40" as="geometry" />
          </mxCell>
        </UserObject>
        <UserObject label="6898630134530752520#heading-9" link="https://juejin.cn/post/6898630134530752520#heading-9" id="u93udzJpezdw6cveQIbG-17">
          <mxCell style="fontColor=#0000EE;fontStyle=4;rounded=1;overflow=hidden;spacing=10;" vertex="1" parent="1">
            <mxGeometry x="20" y="740" width="230" height="40" as="geometry" />
          </mxCell>
        </UserObject>
        <UserObject label="6132801.html" link="https://www.cnblogs.com/lyzg/p/6132801.html" id="u93udzJpezdw6cveQIbG-18">
          <mxCell style="fontColor=#0000EE;fontStyle=4;rounded=1;overflow=hidden;spacing=10;" vertex="1" parent="1">
            <mxGeometry x="293" y="670" width="110" height="40" as="geometry" />
          </mxCell>
        </UserObject>
        <UserObject label="6844903874868822024#heading-3" link="https://juejin.cn/post/6844903874868822024#heading-3" id="u93udzJpezdw6cveQIbG-19">
          <mxCell style="fontColor=#0000EE;fontStyle=4;rounded=1;overflow=hidden;spacing=10;" vertex="1" parent="1">
            <mxGeometry x="293" y="740" width="230" height="40" as="geometry" />
          </mxCell>
        </UserObject>
      </root>
    </mxGraphModel>
  </diagram>
</mxfile>
